<?xml version="1.0" standalone="no"?>
<!DOCTYPE svg PUBLIC "-//W3C//DTD SVG 20010904//EN"
 "http://www.w3.org/TR/2001/REC-SVG-20010904/DTD/svg10.dtd">
<svg version="1.0" xmlns="http://www.w3.org/2000/svg"
 width="512.000000pt" height="512.000000pt" viewBox="0 0 512.000000 512.000000"
 preserveAspectRatio="xMidYMid meet">

<g transform="translate(0.000000,512.000000) scale(0.100000,-0.100000)"
fill="#000000" stroke="none">
<path d="M2755 4275 l-25 -24 0 -351 0 -350 -140 0 -140 0 0 219 c0 248 -2
255 -69 249 -56 -5 -61 -23 -61 -260 l0 -206 -402 -4 c-462 -5 -484 -8 -658
-95 -81 -40 -110 -62 -196 -148 -92 -90 -106 -110 -152 -205 -71 -149 -82
-202 -89 -421 l-6 -187 -37 -11 c-105 -31 -226 -151 -269 -265 -85 -227 33
-491 258 -577 l46 -17 6 -198 c7 -214 17 -263 75 -361 66 -113 211 -211 344
-232 91 -15 2295 -15 2376 0 174 31 331 170 385 339 17 53 22 100 26 263 l6
197 58 31 c118 63 209 195 230 334 28 180 -70 375 -232 459 l-56 30 -6 185
c-6 205 -23 295 -77 409 l-29 62 333 0 c322 0 334 1 360 21 l26 20 0 539 0
539 -22 21 c-22 20 -30 20 -930 20 l-909 0 -24 -25z m1750 -555 l0 -445 -497
-3 -497 -2 -112 -123 c-61 -67 -115 -123 -120 -125 -5 -2 -9 44 -9 105 0 59
-5 115 -10 123 -7 12 -45 16 -202 20 l-193 5 -3 435 c-1 239 0 441 3 448 3 10
173 12 822 10 l818 -3 0 -445z m-1775 -415 c0 -110 1 -117 25 -140 24 -25 26
-25 205 -25 l180 0 0 -159 c0 -145 2 -161 21 -185 20 -25 42 -32 72 -20 9 3
88 86 177 185 l161 179 98 0 98 0 46 -89 c80 -157 78 -130 75 -1031 l-3 -795
-29 -59 c-55 -112 -153 -185 -277 -206 -44 -7 -411 -10 -1199 -8 l-1135 3 -60
24 c-82 33 -173 124 -206 206 l-24 60 0 795 c0 887 -3 842 72 999 94 197 288
338 508 370 33 5 315 9 628 10 l567 1 0 -115z"/>
<path d="M3061 3934 c-12 -15 -21 -32 -21 -39 0 -7 9 -24 21 -39 l20 -26 225
0 c211 0 225 1 244 20 11 11 20 31 20 45 0 14 -9 34 -20 45 -19 19 -33 20
-244 20 l-225 0 -20 -26z"/>
<path d="M3061 3594 c-12 -15 -21 -31 -21 -36 0 -14 21 -52 34 -60 6 -4 291
-8 633 -8 540 0 624 2 637 15 26 27 29 56 8 84 l-19 26 -626 3 -625 2 -21 -26z"/>
<path d="M1463 2396 c-180 -59 -288 -258 -238 -441 43 -161 180 -265 350 -265
99 0 169 27 241 92 189 173 150 466 -78 588 -55 30 -74 34 -148 37 -52 2 -101
-2 -127 -11z m215 -142 c100 -50 149 -160 119 -265 -32 -106 -113 -169 -220
-169 -101 0 -170 44 -213 135 -31 65 -31 125 0 191 56 120 195 168 314 108z"/>
<path d="M3091 2396 c-110 -36 -215 -148 -241 -257 -17 -68 -8 -173 19 -233
60 -137 184 -217 336 -217 97 0 169 28 241 93 151 139 162 361 24 511 -70 77
-142 110 -250 114 -55 2 -101 -2 -129 -11z m197 -132 c182 -75 194 -331 20
-418 -122 -61 -257 -14 -314 109 -39 83 -28 163 33 243 53 70 177 101 261 66z"/>
<path d="M2026 1524 c-19 -19 -21 -64 -3 -86 17 -23 122 -65 220 -88 99 -24
254 -26 345 -5 94 22 221 74 232 95 15 28 12 66 -6 84 -22 23 -64 20 -126 -9
-162 -75 -402 -71 -560 11 -36 19 -83 18 -102 -2z"/>
</g>
</svg>
